<svg width="128" height="38" viewBox="0 0 128 38" fill="none" xmlns="http://www.w3.org/2000/svg">
<path d="M0.182617 25.7626H7.57417C7.88775 28.8162 9.18687 31.3759 14.249 31.3759C17.6536 31.3759 19.8934 29.4898 19.8934 26.8404C19.8934 24.1011 18.4599 23.1581 13.4426 22.3947C4.70714 21.1822 1.12336 18.5777 1.12336 11.9765C1.12336 6.13872 6.00626 1.78284 13.5322 1.78284C21.2373 1.78284 25.7171 5.2406 26.3442 12.0214H19.2663C18.7735 8.92289 16.9816 7.48589 13.577 7.48589C10.1724 7.48589 8.47011 9.0576 8.47011 11.3478C8.47011 13.7727 9.59005 14.9403 14.8313 15.7037C23.1188 16.7365 27.3746 19.0267 27.3746 26.1219C27.3746 32.1842 22.4021 37.034 14.3386 37.034C4.93113 37.034 0.63059 32.5883 0.182617 25.7626Z" fill="black"/>
<path d="M29.48 24.2359V23.8317C29.48 15.9732 35.1692 10.8539 42.6504 10.8539C50.1763 10.8539 55.776 15.8834 55.776 23.697V24.1011C55.776 32.0046 50.0867 37.0341 42.6056 37.0341C35.1692 37.0341 29.48 32.0495 29.48 24.2359ZM48.7876 24.146V23.8317C48.7876 19.0268 46.5477 16.1528 42.6504 16.1528C38.8426 16.1528 36.5132 18.937 36.5132 23.7419V24.146C36.5132 28.951 38.7082 31.825 42.6504 31.825C46.5477 31.7352 48.7876 28.8612 48.7876 24.146Z" fill="black"/>
<path d="M58.3296 27.559V11.3928H65.2284V26.571C65.2284 29.9839 66.6171 31.6005 69.5737 31.6005C72.4855 31.6005 74.7702 29.7594 74.7702 26.0771V11.4377H81.669V36.4953H74.7702V32.5884C73.4711 35.1481 70.9624 37.0341 66.8411 37.0341C61.9582 37.0341 58.3296 34.1601 58.3296 27.559Z" fill="black"/>
<path d="M87.851 29.0407V16.3772H84.6704V11.4375H87.851V6.00391H94.705V11.4375H99.9463V16.3772H94.705V28.4569C94.705 30.4777 95.6905 31.4207 97.4824 31.4207C98.5128 31.4207 99.3191 31.286 100.125 30.9267V36.2705C99.1847 36.5849 97.796 36.9441 95.9145 36.9441C90.6732 36.9441 87.851 34.2947 87.851 29.0407Z" fill="black"/>
<path d="M103.709 0.076416H110.652V15.3893C111.907 12.9195 114.639 10.8538 118.761 10.8538C123.688 10.8538 127.183 13.8176 127.183 20.5535V36.4952H120.239V21.5415C120.239 18.1286 118.895 16.512 115.849 16.512C112.892 16.512 110.652 18.3531 110.652 22.0354V36.4952H103.709V0.076416Z" fill="black"/>
</svg>
